<svg id="Calque_1" data-name="Calque 1" xmlns="http://www.w3.org/2000/svg" xmlns:xlink="http://www.w3.org/1999/xlink" viewBox="0 0 1366 768"><defs><style>.cls-1{fill:#e6e6e6;}.cls-2{fill:#b3b3b3;}.cls-3{fill:#c1272d;}.cls-4{fill:#c7b299;}.cls-5{fill:#fff;}.cls-6{fill:#4d4d4d;}.cls-13,.cls-7{fill:none;}.cls-8{fill:url(#Dégradé_sans_nom_69);}.cls-10,.cls-9{fill:#1a1a1a;}.cls-10,.cls-11,.cls-12,.cls-13,.cls-14,.cls-16,.cls-17{stroke:#000;stroke-miterlimit:10;}.cls-11{fill:#603813;}.cls-14{fill:#29abe2;}.cls-15{fill:#ed1c24;}.cls-16{fill:#f15a24;}.cls-17{fill:#3fa9f5;}.cls-18{font-size:27px;font-family:AnotherTypewriter, Another Typewriter;letter-spacing:0.02em;}.cls-19{letter-spacing:0.02em;}.cls-20{letter-spacing:0.03em;}.cls-21{letter-spacing:0.03em;}.cls-22{letter-spacing:0.02em;}.cls-23{letter-spacing:0.02em;}.cls-24{letter-spacing:-0.05em;}.cls-25{letter-spacing:0em;}.cls-26{letter-spacing:0.01em;}.cls-27{letter-spacing:0.03em;}</style><linearGradient id="Dégradé_sans_nom_69" x1="719.6" y1="293.58" x2="792.43" y2="366.4" gradientUnits="userSpaceOnUse"><stop offset="0" stop-color="#29abe2"/><stop offset="0" stop-color="#51cdcc" stop-opacity="0.95"/><stop offset="1" stop-color="#1488cc"/><stop offset="1" stop-color="#1488cc" stop-opacity="0.7"/><stop offset="1" stop-color="#1488cc" stop-opacity="0.7"/></linearGradient></defs><title>Plan de travail 1</title><rect class="cls-1" x="671.56" y="264" width="166.89" height="144"/><rect class="cls-2" x="749.08" y="282.69" width="5.23" height="223.44" transform="translate(1146.11 -357.28) rotate(90)"/><rect x="750.39" y="298.37" width="5.23" height="246.96" transform="translate(1174.85 -331.15) rotate(90)"/><path class="cls-3" d="M870,529V415.54c0-4.43-2.41-8.06-5.36-8.06H640.1c-2.94,0-5.35,3.63-5.35,8.06V529Z"/><path class="cls-4" d="M860.8,450.6h0V424.94c0-5.29-3.53-9.62-7.84-9.62H651.73c-4.31,0-7.84,4.33-7.84,9.62v25.65H860.8Z"/><path d="M643.89,450.6v48.95c0,10.09,3.53,18.34,7.84,18.34H853c4.31,0,7.84-8.25,7.84-18.34V450.6Z"/><path class="cls-5" d="M795.47,517.89v-7.84c0-1.07-2.55-2-5.66-2H709.66c-3.11,0-5.66.89-5.66,2v7.84Z"/><rect class="cls-3" x="645.85" y="382" width="5.23" height="29.4"/><rect class="cls-3" x="851.65" y="382" width="5.23" height="29.4"/><rect class="cls-6" x="876.48" y="411.4" width="6.53" height="20.91"/><rect class="cls-1" x="883.01" y="414.01" width="5.88" height="16.33"/><rect class="cls-6" x="622.99" y="411.4" width="6.53" height="20.91" transform="translate(1252.51 843.71) rotate(-180)"/><rect class="cls-1" x="617.11" y="414.01" width="5.88" height="16.33" transform="translate(1240.09 844.36) rotate(-180)"/><circle class="cls-5" cx="666" cy="465" r="6"/><circle class="cls-5" cx="683" cy="465" r="6"/><circle class="cls-5" cx="700" cy="465" r="6"/><circle class="cls-5" cx="717" cy="465" r="6"/><circle class="cls-5" cx="734" cy="465" r="6"/><circle class="cls-5" cx="750" cy="465" r="6"/><circle class="cls-5" cx="766" cy="465" r="6"/><circle class="cls-5" cx="782" cy="465" r="6"/><circle class="cls-5" cx="798" cy="465" r="6"/><circle class="cls-5" cx="814" cy="465" r="6"/><circle class="cls-5" cx="831" cy="465" r="6"/><circle class="cls-5" cx="675" cy="480" r="6"/><circle class="cls-5" cx="692" cy="480" r="6"/><circle class="cls-5" cx="709" cy="480" r="6"/><circle class="cls-5" cx="726" cy="480" r="6"/><circle class="cls-5" cx="742" cy="480" r="6"/><circle class="cls-5" cx="758" cy="480" r="6"/><circle class="cls-5" cx="774" cy="480" r="6"/><circle class="cls-5" cx="790" cy="480" r="6"/><circle class="cls-5" cx="806" cy="480" r="6"/><circle class="cls-5" cx="823" cy="480" r="6"/><circle class="cls-5" cx="682" cy="495" r="6"/><circle class="cls-5" cx="699" cy="495" r="6"/><circle class="cls-5" cx="716" cy="495" r="6"/><circle class="cls-5" cx="733" cy="495" r="6"/><circle class="cls-5" cx="749" cy="495" r="6"/><circle class="cls-5" cx="765" cy="495" r="6"/><circle class="cls-5" cx="781" cy="495" r="6"/><circle class="cls-5" cx="797" cy="495" r="6"/><circle class="cls-5" cx="813" cy="495" r="6"/><circle class="cls-5" cx="830" cy="495" r="6"/><circle class="cls-5" cx="657" cy="480" r="6"/><circle class="cls-5" cx="840" cy="480" r="6"/><circle class="cls-5" cx="666" cy="495" r="6"/><path class="cls-7" d="M808,315.15l-.1.09h.17Z"/><path class="cls-8" d="M756,381.5A51.56,51.56,0,0,1,704.51,331h29q.38,0,.75,0c.25,0,.49,0,.74,0h1.54v-.26a8.91,8.91,0,1,0-5.17-17,11,11,0,0,0-16.11-2,10.55,10.55,0,0,0-5.3-2.15,7.6,7.6,0,0,0-.55-1.51,51.51,51.51,0,0,1,88.84-7.61,9.68,9.68,0,0,0-4.58,4.4,7,7,0,0,0-1.21-.1,7.07,7.07,0,0,0-6.63,4.52,4.8,4.8,0,0,0,.25,9.59H806.3a51.76,51.76,0,0,1-1.72,28.22c-.18.13-.35.27-.52.41a9.76,9.76,0,0,0-4.72-1.91,7.95,7.95,0,0,0-15.62,2.05V348a8.49,8.49,0,0,0-1.18.66,8.8,8.8,0,0,0-1.53-.14,8.13,8.13,0,0,0-6.79,3.63,7.66,7.66,0,1,0-7.34,13v.28l1.56,0,.66,0c.23,0,.45,0,.67,0h23.61A51.4,51.4,0,0,1,756,381.5Z"/><path class="cls-9" d="M756,280a49.84,49.84,0,0,1,40,20,11.19,11.19,0,0,0-3.21,3.29h-.39a8.58,8.58,0,0,0-7.65,4.64A6.3,6.3,0,0,0,786,320.41h19A50.51,50.51,0,0,1,806,330a50,50,0,0,1-2.43,15.44,11.52,11.52,0,0,0-3.08-1.14,9.46,9.46,0,0,0-18.25,2.75h0A9.82,9.82,0,0,0,781,347a9.63,9.63,0,0,0-7.06,3.06,9.2,9.2,0,0,0-14,7.77,9.15,9.15,0,0,0,5.46,8.36v.75h3l.73,0,.73,0h19.88a50,50,0,0,1-83.65-34.4h27.35l.81,0,.8,0h3v-.66a10.4,10.4,0,0,0-3.78-20.11,10.65,10.65,0,0,0-2.32.26,12.48,12.48,0,0,0-16.73-2.1,12,12,0,0,0-4.1-1.63,1.21,1.21,0,0,0-.05-.14A50.13,50.13,0,0,1,756,280m0-3a53,53,0,0,0-48.3,31.16,7,7,0,0,1,1,2.89h0a9.14,9.14,0,0,1,6.58,2.78,9.47,9.47,0,0,1,15.46,1.78A7.42,7.42,0,1,1,735,329.52h-.1c-.23,0-.45,0-.68,0s-.46,0-.68,0H703c0,.15,0,.31,0,.47a53,53,0,0,0,93.72,33.93h-27l-.6,0-.6,0h-.12v0a6.14,6.14,0,1,1,6.2-8.93,6.62,6.62,0,0,1,6.43-5,6.69,6.69,0,0,1,1.86.26,6.8,6.8,0,0,1,2.48-1.27,6.23,6.23,0,0,1-.13-1.3,6.45,6.45,0,0,1,12.86-.63h0a8.35,8.35,0,0,1,6,2.54,8.5,8.5,0,0,1,1.72-1.5,53.22,53.22,0,0,0,1.66-30.68H786a3.3,3.3,0,1,1,0-6.6,3,3,0,0,1,.86.12,5.61,5.61,0,0,1,7.6-4.23,8.21,8.21,0,0,1,6-5.42A53,53,0,0,0,756,277Z"/><rect class="cls-10" x="757.21" y="311.58" width="3.53" height="20.97" rx="1.33" ry="1.33" transform="translate(-33.66 95.12) rotate(-7.02)"/><path class="cls-10" d="M755.85,342.13l-1.55-1.06a1.51,1.51,0,0,0-2.08.4l-9.84,14.44-2.73,2.26a1.52,1.52,0,0,0-.19,2.13l.92,1.12a1.52,1.52,0,0,0,2.13.2l2.67-2.22a1.47,1.47,0,0,0,1.15-.65l9.92-14.54A1.51,1.51,0,0,0,755.85,342.13Z"/><path class="cls-10" d="M759,345.64l-1.55-1.05a1.5,1.5,0,0,0-2.08.39l-7.78,11.42a1.47,1.47,0,0,0-.25.9l-2,2.23a1.52,1.52,0,0,0,.14,2.14l1.09,1a1.52,1.52,0,0,0,2.13-.14l2.82-3.21a1.43,1.43,0,0,0,.27-.46l7.57-11.1A1.51,1.51,0,0,0,759,345.64Z"/><rect class="cls-11" x="756.81" y="317.17" width="3.38" height="1.12" rx="0.42" ry="0.42" transform="translate(-33.13 95.03) rotate(-7.02)"/><path class="cls-10" d="M751.18,329.49,749,329a1.49,1.49,0,0,0-1.78,1.15l-.25,1.16a2.37,2.37,0,0,0-1,4.52l-.45,2.09a1.51,1.51,0,0,0,1.15,1.78l2.19.48a1.51,1.51,0,0,0,1.78-1.15l1.68-7.78A1.51,1.51,0,0,0,751.18,329.49Z"/><rect class="cls-12" x="749.34" y="329.83" width="0.62" height="3.5" rx="0.24" ry="0.24" transform="translate(86.68 -150.49) rotate(12.16)"/><rect class="cls-12" x="748.72" y="331.95" width="1.25" height="1.75" rx="0.47" ry="0.47" transform="translate(64.77 -118.45) rotate(9.44)"/><rect class="cls-13" x="746.97" y="334.57" width="2.12" height="4.49" rx="0.8" ry="0.8" transform="translate(87.75 -150.03) rotate(12.16)"/><line class="cls-13" x1="749.34" y1="335.94" x2="747.22" y2="335.44"/><line class="cls-13" x1="749.22" y1="336.57" x2="747.09" y2="336.07"/><line class="cls-13" x1="749.09" y1="337.07" x2="746.97" y2="336.57"/><line class="cls-13" x1="748.97" y1="337.57" x2="746.84" y2="337.07"/><line class="cls-13" x1="748.84" y1="338.07" x2="746.72" y2="337.57"/><path class="cls-14" d="M746,331.58s-.87,2.87-1,3.34C744.22,334.45,744.6,331.83,746,331.58Z"/><path d="M757.58,290.71l-1,21.88c0,.93-.63,1.67-1.32,1.64a1.4,1.4,0,0,1-1.15-1.33l-.51,0a2,2,0,0,0,1.63,2c1,.05,1.79-1,1.85-2.28l1-21.89Z"/><path class="cls-15" d="M772.53,301.47a5.59,5.59,0,0,0-3.12-1,5.91,5.91,0,0,0-2.9.55,6.11,6.11,0,0,0-2.6-.68,5.85,5.85,0,0,0-2.92.57,5.69,5.69,0,0,0-3-1,6.13,6.13,0,0,1-6.49-.3,5.37,5.37,0,0,0-3.37.84,6.17,6.17,0,0,0-6.33-.29c.44-5,7.44-8.66,15.81-8.27S772.44,296.53,772.53,301.47Z"/><circle class="cls-10" cx="758.77" cy="324.4" r="6.55"/><rect class="cls-10" x="750.58" y="331.92" width="11.85" height="13.98" rx="4.47" ry="4.47" transform="translate(88.38 -151.77) rotate(12.16)"/><rect class="cls-10" x="754.21" y="330.44" width="9.09" height="1.5" rx="0.57" ry="0.57"/><rect class="cls-10" x="754.21" y="331.19" width="9.09" height="1.5" rx="0.57" ry="0.57" transform="translate(64.76 -120.01) rotate(9.44)"/><path class="cls-12" d="M764.07,328.1a47.59,47.59,0,0,1-6.62-2.14c-1.62-.88-.74-4,.63-4.12s6.44-.52,6.44-.52a8.7,8.7,0,0,1,.74,3.27A8.48,8.48,0,0,1,764.07,328.1Z"/><polygon class="cls-16" points="755.99 334.24 754.21 332.3 754.58 332.26 756.27 334.04 755.99 334.24"/><path class="cls-16" d="M756.89,335.88l-1.64,7.05a7.78,7.78,0,0,1-3.37,1.13,3.73,3.73,0,0,1-2.36-.69l.06-.47a4.67,4.67,0,0,0,2.3.66,6.35,6.35,0,0,0,2.89-1.12c.48-.5,1.66-6.66,1.66-6.66Z"/><rect class="cls-12" x="755.36" y="334.57" width="7.82" height="1.75" rx="0.66" ry="0.66" transform="translate(87.71 -152.43) rotate(12.16)"/><polygon class="cls-17" points="760.7 335.07 760.45 336.32 761.7 336.19 760.7 335.07"/><rect class="cls-16" x="758.58" y="334.7" width="1.12" height="1.5" rx="0.42" ry="0.42" transform="translate(87.71 -152.41) rotate(12.16)"/><rect class="cls-10" x="744.05" y="320.03" width="20.97" height="3.83" rx="1.5" ry="1.5" transform="translate(373.83 1048.6) rotate(-85.46)"/><rect class="cls-16" x="753.96" y="312.98" width="2.62" height="0.62" rx="0.24" ry="0.24" transform="translate(23.25 -51.03) rotate(3.93)"/><rect class="cls-16" x="753.83" y="313.97" width="2.62" height="0.62" rx="0.24" ry="0.24" transform="translate(23.32 -51.02) rotate(3.93)"/><rect class="cls-16" x="753.71" y="314.97" width="2.62" height="0.62" rx="0.24" ry="0.24" transform="translate(23.39 -51.01) rotate(3.93)"/><rect class="cls-11" x="748.53" y="347.13" width="4.4" height="1.12" rx="0.42" ry="0.42" transform="translate(142.05 -212.66) rotate(17.78)"/><rect class="cls-11" x="753.14" y="348.67" width="4.66" height="1.12" rx="0.42" ry="0.42" transform="translate(142.75 -214.04) rotate(17.78)"/><rect class="cls-11" x="752.95" y="317.1" width="3.87" height="0.95" rx="0.36" ry="0.36" transform="translate(23.54 -50.99) rotate(3.93)"/><polygon class="cls-12" points="755.83 334.07 751.43 334.31 751.23 335.26 755.58 335.07 755.83 334.07"/><polygon class="cls-12" points="756.18 333.94 755.17 332.11 756.18 332.27 757.03 334.07 756.18 333.94"/><path class="cls-12" d="M762.53,335.27a4.77,4.77,0,0,0,.29-1.82c-.12-.63.48.42.48.42s0,1.57-.29,1.82"/><line class="cls-13" x1="762.95" y1="328.58" x2="758.08" y2="327.08"/><line class="cls-13" x1="752.59" y1="325.71" x2="752.21" y2="330.08"/><line class="cls-13" x1="761.82" y1="338.44" x2="760.7" y2="343.93"/><text class="cls-18" transform="translate(674.33 440)">T<tspan class="cls-19" x="14.53" y="0">y</tspan><tspan class="cls-20" x="31.19" y="0">p</tspan><tspan class="cls-21" x="47.36" y="0">e </tspan><tspan class="cls-22" x="74.79" y="0">T</tspan><tspan class="cls-23" x="89.47" y="0">r</tspan><tspan class="cls-24" x="104.25" y="0">a</tspan><tspan class="cls-25" x="117.95" y="0">v</tspan><tspan class="cls-26" x="133.96" y="0">e</tspan><tspan class="cls-27" x="146.61" y="0">l</tspan></text></svg>