<?xml version="1.0" encoding="utf-8"?>
<!-- Generator: Adobe Illustrator 22.1.0, SVG Export Plug-In . SVG Version: 6.00 Build 0)  -->
<svg version="1.1" xmlns="http://www.w3.org/2000/svg" xmlns:xlink="http://www.w3.org/1999/xlink" x="0px" y="0px"
	 viewBox="0 0 1366 768" style="enable-background:new 0 0 1366 768;" xml:space="preserve">
<style type="text/css">
	.st0{clip-path:url(#SVGID_2_);fill:#D9EEFD;}
	.st1{opacity:0.5;clip-path:url(#SVGID_2_);fill:#FCEE21;}
	.st2{clip-path:url(#SVGID_2_);}
	.st3{clip-path:url(#SVGID_4_);fill:#AAD8EB;}
	.st4{clip-path:url(#SVGID_4_);fill:#8CCBF9;}
	.st5{clip-path:url(#SVGID_4_);fill:#14527E;}
	.st6{opacity:0.5;clip-path:url(#SVGID_4_);fill:#FCEE21;}
	.st7{clip-path:url(#SVGID_4_);fill:none;}
	.st8{clip-path:url(#SVGID_4_);fill:#FCEE21;}
	.st9{clip-path:url(#SVGID_4_);fill:#D1E2EE;}
	.st10{clip-path:url(#SVGID_4_);fill:#102A3D;}
</style>
<g id="background">
</g>
<g id="Calque_8">
</g>
<g id="Calque_1">
	<g id="Calque_7">
	</g>
</g>
<g id="Calque_3">
</g>
<g id="sun_array">
</g>
<g id="sun_reflect">
</g>
<g id="Calque_5">
</g>
<g id="Calque_6">
</g>
<g id="Calque_10">
</g>
<g id="Calque_11">
	<g>
		<defs>
			<rect id="SVGID_1_" width="1367" height="768"/>
		</defs>
		<clipPath id="SVGID_2_">
			<use xlink:href="#SVGID_1_"  style="overflow:visible;"/>
		</clipPath>
		<rect class="st0" width="1366" height="772"/>
		<circle class="st1" cx="0" cy="0" r="75"/>
		<g class="st2">
			<defs>
				<rect id="SVGID_3_" width="1367" height="768"/>
			</defs>
			<clipPath id="SVGID_4_">
				<use xlink:href="#SVGID_3_"  style="overflow:visible;"/>
			</clipPath>
			<rect y="609" class="st3" width="1367" height="168"/>
			<path class="st4" d="M-66,321.6c13-11.3,110.2-74.7,110.2-74.7S70.1,222,72.3,213c2.2-9.1,13-38.5,13-38.5l32.4-49.8L135,84
				c0,0,6.5,4.5,10.8,11.3c4.3,6.8,38.9,54.3,38.9,54.3s32.4,6.8,38.9,22.6c6.5,15.8,2.2,38.5,10.8,49.8
				c8.6,11.3,17.3,20.4,28.1,22.6s19.4,6.8,32.4,11.3c13,4.5,32.4-36.2,32.4-36.2s17.3,0,30.3-17c13-17,23.8-35.1,28.1-41.9
				c4.3-6.8,0-6.8,0-6.8l25.9,31.7c0,0,13-4.5,19.4,17c6.5,21.5,32.4,46.4,32.4,46.4l45.4,18.1c0,0,10.8,22.6,17.3,22.6
				s75.6-15.8,84.3-24.9c8.6-9.1,28.1-24.9,28.1-24.9l33.5-49.8c0,0,31.3,43,35.7,49.8c4.3,6.8,15.1,43,21.6,56.6
				c6.5,13.6,15.1,36.2,36.7,45.3c21.6,9.1,75.6,0,75.6,0s23.8-31.7,38.9-58.8s60.5-81.5,60.5-81.5l25.9-49.8
				c0,0,41.1,56.6,41.1,63.4s38.9,43,38.9,49.8s17.3,43,17.3,43l60.5,38.5c0,0,47.5-15.8,51.9-22.6c4.3-6.8,25.9-38.5,25.9-38.5
				l49.7-54.3c0,0,32.4-2.3,43.2,6.8s28.1,20.4,28.1,20.4l43.2,4.5h17.3l25.9-4.5V489H-66V321.6z"/>
			<path class="st5" d="M864,193"/>
			<path class="st5" d="M0,326.8l89.9-66.5l40-12.6l16-29.8l62,42.4l18,50.5l58,59.6h64c0,0,18-34.4,28-45.9c10-11.5,52-31,52-31
				s12,72.3,22,76.8c10,4.6,30,68.8,30,68.8h52l26-98.6l95.9-43.6l31,94l40,59.6l86.9-28.7c0,0,28-106.7,28-118.1s18-40.1,18-40.1
				l11-45.9l15.5,32.7l15.5,32.7l24,64.2l53,36.7c0,0,15,2.3,18,2.3s34-52.8,34-52.8s47-32.1,53-50.5s14-80.3,14-80.3l19-22.9
				l41,55.1l14,64.2l18,71.1h62l62,16.1l26,2.3l30,12.6V586H2L0,326.8z"/>
			<polygon class="st6" points="672,190 639,240 616.3,259.3 628,257 644,246 655,242 657,226 667,214 			"/>
			<polygon class="st6" points="1096,203 1082,283 1067,303 1076,303 1087,290 1108,208 1114,180 			"/>
			<rect x="-246" y="-105" class="st7" width="246" height="1024"/>
			<path class="st8" d="M864,193"/>
			<path class="st8" d="M883,267"/>
			<polygon class="st6" points="135,84 118,125 85,175 71.9,214.2 82,206 95,188 103,169 115,146 127,122 			"/>
			<polygon class="st6" points="654,297 558,340.3 532,439 551,399.7 561,372.5 565,355.4 590,333.3 630,317.1 			"/>
			<path class="st9" d="M1366,708.7c0,0-219-21.7-233-22.7c17-4,213-6,233-10s-280-19-285-24s285-19.3,285-19.3
				S1034.7,615,1027.3,611c-7.3-4,338.7,0,338.7,0V708.7z"/>
			<path class="st9" d="M0,658.9c0,0,590,20.1,600,32.1S0,719,0,719V658.9z"/>
			<path class="st9" d="M0,625c0,0,486,2,478,14S0,659,0,659V625z"/>
			<path class="st9" d="M578,640c80-9,278-11,289,0S588,657,578,640z"/>
			<path class="st9" d="M766,689c-16,12,246,10,226,0S796,681,766,689z"/>
			<path class="st10" d="M0,481c0,0,84-36,96-36s72,0,72,0l60,60c0,0,18,30,36,32s84,0,84,0l86-54l144-12l48,67l86,15
				c0,0,54,12,70,0s16-24,28-32s69-38,69-38l45-22l92-2l52,43h102l27,73c0,0,55,0,65,0s64-22,64-22l20-26l20-4v86L0,606V481z"/>
		</g>
	</g>
</g>
</svg>
